<svg width="1279" height="208" viewBox="0 0 1279 208" fill="none" xmlns="http://www.w3.org/2000/svg">
<path d="M-1.68 203.28V167.44L92.68 40.32H3.36V4.47998H139.44V40.32L45.92 167.44H141.68V203.28H-1.68ZM171.811 203.28V4.47998H296.131V40.32H211.571V85.96H292.771V121.24H211.571V167.44H298.371V203.28H171.811ZM327.941 203.28V4.47998H392.061C434.901 4.47998 460.381 27.44 460.381 64.12C460.381 88.48 446.101 105.56 426.781 111.72C446.941 115.36 457.021 126.56 458.701 147.84L463.461 203.28H423.141L419.781 158.48C418.101 136.08 410.821 131.04 389.261 131.04H367.701V203.28H327.941ZM367.701 95.2H390.661C409.141 95.2 419.501 85.4 419.501 67.76C419.501 50.4 409.141 40.32 390.661 40.32H367.701V95.2ZM556.872 207.76C508.712 207.76 481.832 170.8 481.832 104.16C481.832 37.52 508.712 -8.10623e-06 556.872 -8.10623e-06C605.032 -8.10623e-06 631.912 37.52 631.912 104.16C631.912 170.8 605.032 207.76 556.872 207.76ZM556.872 172.48C578.992 172.48 591.032 151.48 591.032 104.16C591.032 56.84 578.992 35.28 556.872 35.28C534.752 35.28 522.712 56.84 522.712 104.16C522.712 151.48 534.752 172.48 556.872 172.48ZM654.202 203.28V4.47998H715.242C759.762 4.47998 784.122 22.96 784.122 57.68C784.122 79.52 771.802 95.76 745.482 100.8C777.682 104.72 792.522 123.2 792.522 148.96C792.522 184.8 767.322 203.28 721.402 203.28H654.202ZM694.242 85.4H715.242C733.722 85.4 743.242 77 743.242 62.44C743.242 47.88 733.722 39.76 715.242 39.76H694.242V85.4ZM694.242 168L721.682 167.72C741.562 167.72 751.642 159.04 751.642 144.48C751.642 128.8 741.002 119.56 721.682 119.56H694.242V168ZM881.453 207.76C833.293 207.76 806.413 170.8 806.413 104.16C806.413 37.52 833.293 -8.10623e-06 881.453 -8.10623e-06C929.613 -8.10623e-06 956.493 37.52 956.493 104.16C956.493 170.8 929.613 207.76 881.453 207.76ZM881.453 172.48C903.573 172.48 915.613 151.48 915.613 104.16C915.613 56.84 903.573 35.28 881.453 35.28C859.333 35.28 847.293 56.84 847.293 104.16C847.293 151.48 859.333 172.48 881.453 172.48ZM1043.74 207.76C995.584 207.76 968.704 170.8 968.704 104.16C968.704 37.52 995.584 -8.10623e-06 1043.74 -8.10623e-06C1091.9 -8.10623e-06 1118.78 37.52 1118.78 104.16C1118.78 170.8 1091.9 207.76 1043.74 207.76ZM1043.74 172.48C1065.86 172.48 1077.9 151.48 1077.9 104.16C1077.9 56.84 1065.86 35.28 1043.74 35.28C1021.62 35.28 1009.58 56.84 1009.58 104.16C1009.58 151.48 1021.62 172.48 1043.74 172.48ZM1186.15 203.28V40.32H1133.23V4.47998H1278.83V40.32H1225.91V203.28H1186.15Z" fill="#F9F9F7"/>
</svg>
